<?xml version="1.0" encoding="UTF-8" standalone="no"?>
<!DOCTYPE svg PUBLIC "-//W3C//DTD SVG 1.1//EN" "http://www.w3.org/Graphics/SVG/1.1/DTD/svg11.dtd">
<svg xmlns="http://www.w3.org/2000/svg" version="1.1" viewBox="0.00 0.00 16.00 16.00">
<path fill="#1c1f82" d="
  M 3.14 0.00
  L 12.96 0.00
  Q 15.25 0.97 16.00 3.32
  L 16.00 12.95
  Q 15.03 15.30 12.71 16.00
  L 3.06 16.00
  Q 0.77 14.98 0.00 12.87
  L 0.00 3.05
  Q 1.00 0.84 3.14 0.00
  Z
  M 14.6800 4.1650
  A 2.90 2.90 0.0 0 0 11.7649 1.2802
  L 4.1650 1.3200
  A 2.90 2.90 0.0 0 0 1.2802 4.2351
  L 1.3200 11.8350
  A 2.90 2.90 0.0 0 0 4.2351 14.7198
  L 11.8350 14.6800
  A 2.90 2.90 0.0 0 0 14.7198 11.7649
  L 14.6800 4.1650
  Z"
/>
<circle fill="#1c1f82" cx="12.33" cy="3.67" r="0.97"/>
<path fill="#1c1f82" d="
  M 11.97 8.01
  A 3.97 3.97 0.0 0 1 8.00 11.98
  A 3.97 3.97 0.0 0 1 4.03 8.01
  A 3.97 3.97 0.0 0 1 8.00 4.04
  A 3.97 3.97 0.0 0 1 11.97 8.01
  Z
  M 10.63 7.99
  A 2.64 2.64 0.0 0 0 7.99 5.35
  A 2.64 2.64 0.0 0 0 5.35 7.99
  A 2.64 2.64 0.0 0 0 7.99 10.63
  A 2.64 2.64 0.0 0 0 10.63 7.99
  Z"
/>
</svg>
