<?xml version="1.0" encoding="UTF-8" standalone="no"?>
<!DOCTYPE svg PUBLIC "-//W3C//DTD SVG 1.1//EN" "http://www.w3.org/Graphics/SVG/1.1/DTD/svg11.dtd">
<svg xmlns="http://www.w3.org/2000/svg" version="1.1" viewBox="0.00 0.00 16.00 16.00">
<path fill="#1f2283" d="
  M 9.17 0.00
  L 12.29 0.00
  L 12.25 2.46
  A 0.66 0.66 0.0 0 1 11.49 3.10
  Q 10.75 2.98 10.01 3.18
  Q 9.57 3.31 9.53 3.77
  L 9.41 5.04
  A 0.64 0.64 0.0 0 0 10.05 5.74
  L 11.50 5.75
  Q 12.24 5.75 12.24 6.50
  L 12.23 8.53
  A 0.52 0.51 -0.6 0 1 11.72 9.04
  L 10.04 9.04
  Q 9.41 9.04 9.40 9.67
  L 9.33 16.00
  L 6.10 16.00
  L 6.10 9.62
  Q 6.09 9.00 5.48 9.03
  L 4.41 9.07
  A 0.67 0.67 0.0 0 1 3.71 8.40
  L 3.71 6.27
  Q 3.72 5.75 4.24 5.75
  L 5.55 5.75
  A 0.52 0.52 0.0 0 0 6.08 5.20
  C 5.94 2.83 6.46 0.70 9.17 0.00
  Z"
/>
</svg>
