<?xml version="1.0" encoding="UTF-8" standalone="no"?>
<!DOCTYPE svg PUBLIC "-//W3C//DTD SVG 1.1//EN" "http://www.w3.org/Graphics/SVG/1.1/DTD/svg11.dtd">
<svg xmlns="http://www.w3.org/2000/svg" version="1.1" viewBox="0.00 0.00 16.00 16.00">
<path fill="#171d6d" d="
  M 6.38 0.00
  L 8.70 0.00
  C 17.89 2.56 16.38 15.00 7.04 14.81
  C 6.01 14.79 5.27 14.36 4.32 14.17
  C 2.93 13.89 1.52 14.78 0.00 14.78
  Q 0.00 14.62 0.00 14.45
  Q 1.66 11.55 0.00 7.90
  L 0.00 6.97
  Q 0.89 1.39 6.38 0.00
  Z
  M 4.79 12.94
  C 8.54 14.66 12.78 12.63 13.55 8.57
  C 14.49 3.59 9.60 -0.10 5.01 1.83
  C 2.10 3.06 0.38 6.74 1.89 9.75
  Q 2.52 11.01 2.06 12.31
  Q 1.63 13.54 2.81 12.98
  Q 3.23 12.78 3.68 12.75
  Q 4.26 12.70 4.79 12.94
  Z"
/>
<path fill="#171d6d" d="
  M 8.43 9.16
  Q 8.88 9.07 9.09 8.71
  A 0.67 0.66 31.1 0 1 10.01 8.49
  L 10.96 9.08
  Q 11.64 9.51 11.08 10.09
  L 10.53 10.64
  Q 10.07 11.10 9.43 10.99
  Q 5.40 10.29 3.74 6.06
  A 1.36 1.35 -1.6 0 1 5.43 4.28
  Q 6.39 4.60 6.04 5.78
  Q 5.35 8.11 7.99 9.12
  A 0.74 0.71 -38.3 0 0 8.43 9.16
  Z"
/>
</svg>
